<svg width="110" height="110" viewBox="0 0 110 110" fill="none" xmlns="http://www.w3.org/2000/svg">
<path d="M97.9524 41.0815C97.9524 36.3319 97.9611 31.5823 97.9481 26.8326C97.9394 23.8707 95.9492 21.5915 93.0374 21.1566C92.2889 21.0435 91.5404 21 90.7832 21C66.883 21.0043 42.9872 21.0043 19.087 21.0043C18.6976 21.0043 18.3039 21.0087 17.9145 21.0217C15.3185 21.0913 12.2899 22.6963 12 25.9932C12 45.6658 12 65.3385 12 85.0112C12.5538 87.8731 14.2455 89.465 17.1703 89.8956C17.8366 89.9956 18.5072 90 19.1778 90C43.0218 90 66.8614 90 90.7053 90C91.0947 90 91.4885 90 91.8778 89.987C95.0709 89.9 98.0389 87.7426 98 83.5715C97.8745 69.4096 97.9524 55.2434 97.9524 41.0815ZM16.8588 68.7485C16.8588 55.0651 16.8588 41.3816 16.8588 27.6982C16.8588 26.3585 16.9972 26.2194 18.3515 26.2194C42.7492 26.2194 67.147 26.2194 91.5447 26.2194C92.847 26.2194 93.0071 26.3759 93.0071 27.646C93.0071 39.7549 93.0071 51.8638 93.0071 63.9771C93.0071 64.2207 93.0071 64.4643 93.0071 64.934C91.5317 63.0333 90.1861 61.3022 88.8406 59.5711C85.9028 55.7827 82.9823 51.9856 80.0316 48.2146C78.5908 46.3748 76.3929 45.7137 74.3464 46.4314C73.3729 46.775 72.5985 47.3969 71.9149 48.1581C66.5196 54.1647 61.12 60.1583 55.7204 66.1606C54.7555 67.2349 54.1888 67.3175 52.9687 66.5433C48.6723 63.8249 44.3803 61.1021 40.084 58.3837C37.09 56.4873 33.9532 56.6309 31.1323 58.7925C26.6239 62.246 22.1113 65.6952 17.603 69.1486C17.391 69.3096 17.1746 69.4661 16.8588 69.701C16.8588 69.2878 16.8588 69.0182 16.8588 68.7485ZM93.0114 83.2801C93.0114 84.6371 92.8686 84.785 91.5404 84.785C79.3264 84.785 67.1123 84.785 54.9027 84.785C42.7189 84.785 30.5309 84.785 18.3471 84.785C17.0059 84.785 16.8631 84.6414 16.8588 83.2975C16.8588 81.0488 16.8761 78.8001 16.8458 76.5558C16.8415 76.0599 16.9713 75.7468 17.3736 75.4423C22.9853 71.1711 28.5796 66.8826 34.1782 62.6027C35.2685 61.7719 36.242 61.7284 37.4232 62.4722C41.793 65.2341 46.1542 68.0047 50.5198 70.7666C53.5484 72.6804 56.802 72.2324 59.1946 69.5705C64.538 63.6335 69.8814 57.6965 75.2247 51.7595C75.9732 50.9244 75.9776 50.9244 76.6395 51.7769C81.9786 58.6621 87.3133 65.5516 92.661 72.4325C92.9206 72.7674 93.0114 73.098 93.0114 73.5068C93.0071 76.7602 93.0114 80.018 93.0114 83.2801Z" fill="white"/>
<path d="M47.9194 54.3734C52.6743 54.3473 56.4774 50.5024 56.4688 45.731C56.4601 40.9248 52.5964 37.0842 47.8112 37.1147C43.0822 37.1451 39.2748 41.0336 39.3051 45.8006C39.3311 50.5719 43.1818 54.4038 47.9194 54.3734ZM47.9064 41.9991C49.9789 42.0078 51.6057 43.6606 51.6057 45.7484C51.6057 47.8318 49.9659 49.4889 47.8978 49.4976C45.8296 49.5063 44.1725 47.8622 44.1552 45.7832C44.1379 43.6563 45.795 41.9861 47.9064 41.9991Z" fill="white"/>
</svg>
