<svg width="110" height="110" viewBox="0 0 110 110" fill="none" xmlns="http://www.w3.org/2000/svg">
<path d="M55.0275 100.254C54.2116 100.254 53.7007 99.5951 53.4259 99.2395C50.3849 95.3083 47.2669 91.3247 44.2561 87.4735C38.5586 80.1928 32.6688 72.6613 27.018 65.1435C19.8892 55.6629 18.0624 43.3263 22.1308 32.1475C26.2295 20.8778 35.6411 12.555 47.3054 9.88372C56.5412 7.76926 66.0462 9.47847 74.0677 14.6971C82.0783 19.9074 87.5094 27.9021 89.3554 37.2062C89.8362 39.6267 90.0669 42.0113 90.0449 44.2939C89.957 52.4044 87.2759 59.8836 82.0728 66.5191C73.87 76.9839 66.0269 87.1068 56.6263 99.2532C56.3736 99.5785 55.8489 100.254 55.0275 100.254ZM55.0742 11.207C52.6513 11.207 50.2118 11.4799 47.7944 12.034C36.8609 14.5372 28.0399 22.3389 24.1939 32.9029C20.3837 43.3787 22.0951 54.9324 28.7706 63.8147C34.4104 71.316 40.2947 78.8365 45.984 86.1116C48.9564 89.9105 52.0249 93.8362 55.0303 97.7177C64.3704 85.6513 72.1777 75.5752 80.3421 65.1573C85.3062 58.825 87.7594 51.9936 87.8445 44.2719C87.8665 42.1409 87.6495 39.9106 87.1989 37.6363C85.4683 28.9193 80.3806 21.4291 72.8728 16.5469C67.4554 13.0237 61.3156 11.207 55.0742 11.207ZM55.0275 58.4941C55.011 58.4941 54.9945 58.4941 54.9781 58.4941C46.6406 58.4666 39.8799 51.6353 39.9047 43.2684C39.9184 39.2242 41.5035 35.4226 44.3742 32.561C47.2312 29.7105 51.014 28.1447 55.0248 28.1447C55.0412 28.1447 55.0577 28.1447 55.0742 28.1447C63.4117 28.1722 70.1723 35.0008 70.1476 43.3677C70.1366 47.4119 68.5488 51.2135 65.6753 54.0778C62.8183 56.9255 59.0383 58.4941 55.0275 58.4941ZM54.9836 56.2887C54.9973 56.2887 55.011 56.2887 55.0275 56.2887C58.4532 56.2887 61.6838 54.9489 64.1287 52.5119C66.5846 50.0639 67.9417 46.8136 67.9499 43.3621C67.9719 36.211 62.192 30.3749 55.066 30.3501C55.0522 30.3501 55.0385 30.3501 55.0248 30.3501C51.5964 30.3501 48.3658 31.6899 45.9208 34.1269C43.4677 36.5722 42.1106 39.8224 42.0996 43.2767C42.0804 50.425 47.8575 56.2639 54.9836 56.2887Z" fill="#FEFEFE" stroke="white" stroke-width="3"/>
</svg>
