<svg width="320" height="440" viewBox="0 0 320 440" fill="none" xmlns="http://www.w3.org/2000/svg">
<path d="M319 159.069C319 262.914 160 439 160 439C160 439 2 262.875 2 159.069C2 71.6323 72.9789 0.722168 160.5 0.722168C248.021 0.722168 319 71.6323 319 159.069Z" fill="#596E5D"/>
<g clip-path="url(#clip0_830_925)">
<path d="M206.033 64.2312L157.536 80.495V87.8252L206.049 71.5614L206.033 64.2312Z" fill="#222E1D"/>
<path d="M204.773 76.7888L157.536 89.7884V96.9222L204.798 83.939L204.773 76.7888Z" fill="#222E1D"/>
<path d="M203.538 96.3169L203.521 89.363L157.536 99.2293V106.183L203.538 96.3169Z" fill="#222E1D"/>
<path d="M202.286 108.695L202.262 101.929L157.536 108.817V115.583L202.286 108.695Z" fill="#222E1D"/>
<path d="M201.034 121.072L201.01 114.495L157.536 118.561V125.138L201.034 121.072Z" fill="#222E1D"/>
<path d="M199.775 133.45L199.758 127.061L157.536 128.46V134.849L199.775 133.45Z" fill="#222E1D"/>
<path d="M109.031 64.2471L109.015 71.5609L157.536 87.8247V80.4945L109.031 64.2471Z" fill="#222E1D"/>
<path d="M110.291 76.8215L110.266 83.939L157.536 96.9222V89.7884L110.291 76.8215Z" fill="#222E1D"/>
<path d="M111.518 96.317L157.536 106.183V99.2294L111.543 89.3877L111.518 96.317Z" fill="#222E1D"/>
<path d="M112.77 108.695L157.536 115.583V108.817L112.794 101.954L112.77 108.695Z" fill="#222E1D"/>
<path d="M114.029 121.073L157.535 125.138V118.561L114.053 114.52L114.029 121.073Z" fill="#222E1D"/>
<path d="M115.281 133.45L157.536 134.849V128.46L115.306 127.086L115.281 133.45Z" fill="#222E1D"/>
<path d="M109.015 64.2638L157.528 48V55.3302L109.031 71.5776L109.015 64.2638Z" fill="#DBDB95"/>
<path d="M110.291 83.9553L110.266 76.8297L157.528 63.8464V70.9884L110.291 83.9553Z" fill="#DBDB95"/>
<path d="M111.543 96.3329L111.518 89.3954L157.528 79.5374V86.4912L111.543 96.3329Z" fill="#DBDB95"/>
<path d="M112.794 108.711L112.77 101.962L157.528 95.0815V101.839L112.794 108.711Z" fill="#DBDB95"/>
<path d="M114.053 121.089L114.029 114.528L157.527 110.462V117.039L114.053 121.089Z" fill="#DBDB95"/>
<path d="M115.306 133.458L115.281 127.094L157.528 125.703V132.084L115.306 133.458Z" fill="#DBDB95"/>
<path d="M116.557 145.796L116.541 139.619L157.528 139.685V145.878L116.557 145.796Z" fill="#DBDB95"/>
<path d="M206.049 64.2638L206.024 71.6021L157.527 55.3302V48L206.049 64.2638Z" fill="#999656"/>
<path d="M204.773 83.9798L157.527 70.9884V63.8464L204.797 76.8297L204.773 83.9798Z" fill="#999656"/>
<path d="M203.521 96.3493L157.527 86.4912V79.5374L203.537 89.3954L203.521 96.3493Z" fill="#999656"/>
<path d="M202.261 108.727L157.527 101.839V95.0815L202.286 101.962L202.261 108.727Z" fill="#999656"/>
<path d="M201.009 121.105L157.527 117.039V110.462L201.034 114.528L201.009 121.105Z" fill="#999656"/>
<path d="M199.758 133.483L157.527 132.084V125.703L199.774 127.094L199.758 133.483Z" fill="#999656"/>
<path d="M198.506 145.812L157.527 145.878V139.685L198.522 139.619L198.506 145.812Z" fill="#999656"/>
<path d="M75.1616 171.091C73.6972 171.091 72.421 171.492 71.3247 172.285C70.2203 173.095 69.4022 174.102 68.8623 175.296C68.3141 176.499 68.0442 177.791 68.0442 179.182C68.0442 180.196 68.2078 181.17 68.5268 182.127C68.8459 183.093 69.304 183.96 69.9012 184.729C70.4984 185.506 71.2429 186.119 72.151 186.586C73.0509 187.06 74.0572 187.298 75.1616 187.298C76.8633 187.298 78.344 186.872 79.6202 186.013V182.839H76.127C75.7425 182.839 75.4888 182.765 75.3416 182.626C75.2025 182.512 75.1289 182.25 75.1289 181.857V178.789C75.1289 178.413 75.2025 178.151 75.3416 178.004C75.4807 177.865 75.7425 177.791 76.127 177.791H84.5943C84.9788 177.791 85.2406 177.865 85.3797 178.004C85.5106 178.159 85.576 178.421 85.576 178.789V187.298C85.576 187.788 85.3797 188.222 84.987 188.615C83.8089 189.776 82.3281 190.717 80.5283 191.413C78.7776 192.1 76.9941 192.443 75.1616 192.443C73.3291 192.443 71.7256 192.083 70.0976 191.372C68.4696 190.668 67.0624 189.727 65.8926 188.533C64.7063 187.347 63.7655 185.94 63.0783 184.312C62.3747 182.659 62.0229 180.949 62.0229 179.174C62.0229 176.793 62.6202 174.584 63.8064 172.539C64.9681 170.518 66.5716 168.907 68.6005 167.704C70.6048 166.518 72.7973 165.921 75.1616 165.921C76.9287 165.921 78.6794 166.256 80.4056 166.935C82.14 167.614 83.588 168.53 84.7334 169.684C84.9133 169.864 85.0197 170.019 85.0524 170.167C85.0851 170.297 85.077 170.428 85.0197 170.559C84.9624 170.666 84.8315 170.837 84.627 171.075L82.3609 173.554C82.0909 173.84 81.8618 173.995 81.6819 174.02C81.4773 174.044 81.2401 173.922 80.9701 173.66C79.3503 171.934 77.4114 171.075 75.1616 171.075V171.091Z" fill="#E1E43C"/>
<path d="M112.622 174.069C112.622 175.983 112.131 177.521 111.141 178.683C110.168 179.861 108.867 180.695 107.255 181.195L113.424 190.676C113.661 191.126 113.686 191.453 113.497 191.658C113.317 191.863 113.015 191.961 112.589 191.961H108.9C108.507 191.961 108.196 191.887 107.975 191.732C107.73 191.593 107.476 191.339 107.223 190.987L101.234 181.751H99.1889V190.987C99.1889 191.372 99.1235 191.625 98.9926 191.756C98.8535 191.895 98.5917 191.969 98.2072 191.969H94.2312C93.8385 191.969 93.5849 191.895 93.4622 191.756C93.3231 191.625 93.2495 191.372 93.2495 190.987V167.401C93.2495 167.025 93.3231 166.763 93.4622 166.616C93.5931 166.477 93.8467 166.403 94.2312 166.403H103.32C104.187 166.403 105.046 166.477 105.889 166.616C106.756 166.78 107.591 167.041 108.384 167.401C109.194 167.77 109.914 168.236 110.56 168.792C111.166 169.365 111.665 170.101 112.058 171.001C112.434 171.925 112.63 172.948 112.63 174.069H112.622ZM103.14 176.818C104.4 176.818 105.341 176.589 105.955 176.139C106.56 175.689 106.863 175.002 106.863 174.069C106.863 173.136 106.568 172.449 105.971 171.999C105.374 171.557 104.433 171.336 103.14 171.336H99.1807V176.81H103.14V176.818Z" fill="#E1E43C"/>
<path d="M144.855 190.987C144.978 191.216 144.97 191.429 144.839 191.65C144.716 191.862 144.52 191.969 144.233 191.969H139.562C139.251 191.969 139.014 191.903 138.85 191.772C138.687 191.642 138.49 191.38 138.278 190.987L136.355 187.224H126.088L124.165 190.987C123.936 191.404 123.756 191.666 123.609 191.772C123.446 191.903 123.2 191.969 122.881 191.969H118.21C117.948 191.969 117.752 191.871 117.621 191.666C117.49 191.462 117.482 191.241 117.588 190.987L130.375 166.919L130.514 166.673C130.514 166.673 130.563 166.608 130.587 166.559C130.612 166.501 130.628 166.469 130.637 166.444C130.645 166.395 130.686 166.338 130.743 166.264C130.792 166.19 130.825 166.15 130.849 166.125L130.939 166.035C130.939 166.035 130.997 165.986 131.046 165.961C131.07 165.953 131.111 165.945 131.168 165.945H131.275C131.332 165.945 131.373 165.945 131.397 165.961C131.446 165.986 131.479 166.011 131.504 166.035L131.61 166.125C131.635 166.174 131.667 166.223 131.716 166.264C131.741 166.313 131.774 166.37 131.823 166.444C131.831 166.477 131.872 166.559 131.946 166.673L132.068 166.919L144.855 190.987ZM131.201 175.91L128.1 182.184H134.375L131.275 175.91H131.201Z" fill="#E1E43C"/>
<path d="M156.57 190.988C156.57 191.372 156.505 191.626 156.374 191.757C156.235 191.896 155.965 191.969 155.589 191.969H151.613C151.22 191.969 150.966 191.896 150.844 191.757C150.704 191.626 150.631 191.372 150.631 190.988V166.256C150.631 166.142 150.655 166.052 150.704 166.003C150.754 165.954 150.835 165.929 150.958 165.929H151.334C151.539 165.929 151.76 166.036 152.013 166.248L167.508 180.246V167.394C167.508 167.017 167.496 166.832 167.721 166.608C167.942 166.389 168.097 166.396 168.49 166.396H172.466C172.842 166.396 173.104 166.469 173.251 166.608C173.399 166.747 173.464 167.009 173.464 167.394V192.108C173.464 192.337 173.349 192.444 173.12 192.444H172.76C172.556 192.444 172.327 192.329 172.065 192.108L156.57 177.955V190.988Z" fill="#E1E43C"/>
<path d="M183.789 167.401C183.683 167.156 183.691 166.919 183.822 166.706C183.953 166.502 184.149 166.403 184.411 166.403H189.082C189.401 166.403 189.647 166.469 189.81 166.6C189.966 166.722 190.146 166.984 190.367 167.401L197.443 181.129V181.162L204.487 167.401C204.7 167.001 204.888 166.731 205.06 166.6C205.223 166.469 205.461 166.403 205.771 166.403H210.443C210.762 166.403 210.974 166.526 211.089 166.763C211.195 167.009 211.187 167.23 211.073 167.401L198.286 191.453C198.253 191.511 198.188 191.625 198.106 191.789C198.024 191.92 197.967 192.018 197.942 192.092L197.819 192.272C197.762 192.353 197.705 192.402 197.656 192.419C197.582 192.443 197.525 192.452 197.476 192.452H197.37C197.37 192.452 197.28 192.443 197.206 192.419C197.157 192.411 197.108 192.362 197.042 192.272C196.96 192.165 196.92 192.108 196.92 192.092C196.895 192.059 196.846 191.953 196.756 191.789C196.723 191.732 196.682 191.658 196.641 191.584C196.601 191.503 196.576 191.462 196.56 191.453L183.773 167.401H183.789Z" fill="#E1E43C"/>
<path d="M216.84 167.401C216.84 167.025 216.914 166.763 217.053 166.616C217.184 166.477 217.438 166.403 217.822 166.403H221.798C222.174 166.403 222.436 166.477 222.583 166.616C222.714 166.771 222.78 167.033 222.78 167.401V190.987C222.78 191.372 222.714 191.625 222.583 191.756C222.444 191.895 222.183 191.969 221.798 191.969H217.822C217.429 191.969 217.176 191.895 217.053 191.756C216.914 191.625 216.84 191.372 216.84 190.987V167.401Z" fill="#E1E43C"/>
<path d="M243.118 187.298C245.368 187.298 247.299 186.431 248.927 184.696C249.197 184.435 249.434 184.32 249.638 184.336C249.826 184.361 250.056 184.525 250.317 184.819L252.583 187.298C252.788 187.535 252.919 187.707 252.976 187.813C253.033 187.944 253.05 188.075 253.009 188.206C252.976 188.345 252.87 188.509 252.69 188.689C251.536 189.842 250.096 190.758 248.354 191.438C246.628 192.117 244.885 192.452 243.11 192.452C241.335 192.452 239.674 192.092 238.046 191.38C236.418 190.677 235.011 189.736 233.841 188.541C232.655 187.355 231.714 185.948 231.027 184.32C230.323 182.667 229.971 180.958 229.971 179.182C229.971 176.802 230.568 174.593 231.755 172.548C232.916 170.527 234.52 168.915 236.549 167.713C238.553 166.526 240.746 165.929 243.11 165.929C244.885 165.929 246.628 166.265 248.354 166.944C250.088 167.623 251.536 168.539 252.69 169.692C252.87 169.872 252.976 170.028 253.009 170.175C253.042 170.306 253.033 170.437 252.976 170.568C252.919 170.674 252.788 170.846 252.583 171.083L250.317 173.562C250.039 173.848 249.818 174.004 249.638 174.028C249.434 174.053 249.197 173.93 248.927 173.668C247.307 171.942 245.368 171.083 243.118 171.083C241.654 171.083 240.377 171.484 239.281 172.278C238.177 173.088 237.359 174.094 236.819 175.288C236.271 176.491 236.001 177.783 236.001 179.174C236.001 180.189 236.164 181.162 236.483 182.119C236.802 183.085 237.26 183.952 237.858 184.721C238.455 185.498 239.199 186.112 240.107 186.578C241.007 187.053 242.014 187.29 243.118 187.29V187.298Z" fill="#E1E43C"/>
<path d="M50.0702 241.75C50.0702 242.928 49.7347 243.264 48.5567 243.264H42.4373C41.2592 243.264 40.9238 242.928 40.9238 241.75V203.758C40.9238 203.365 41.0384 203.25 41.431 203.25H41.9955C42.3882 203.25 42.6664 203.422 43.0591 203.758L66.8575 225.257V205.5C66.8575 204.322 67.193 203.987 68.371 203.987H74.4904C75.6685 203.987 76.0039 204.322 76.0039 205.5V243.493C76.0039 243.885 75.8894 244 75.4967 244H74.9322C74.5395 244 74.2613 243.828 73.8686 243.493L50.0702 221.715V241.75Z" fill="#F6E8D7"/>
<path d="M122.514 241.75C122.906 242.478 122.399 243.264 121.556 243.264H114.374C113.367 243.264 113.024 242.928 112.41 241.75L109.432 235.966H93.6593L90.6814 241.75C90.0679 242.928 89.7243 243.264 88.718 243.264H81.5351C80.6924 243.264 80.2425 242.478 80.5779 241.75L100.22 204.764C100.785 203.807 100.949 203.25 101.456 203.25H101.628C102.135 203.25 102.298 203.815 102.863 204.764L122.505 241.75H122.514ZM101.529 218.573L96.7599 228.227H106.413L101.644 218.573H101.529Z" fill="#F6E8D7"/>
<path d="M150.975 203.979C152.153 203.979 152.488 204.314 152.488 205.492V210.597C152.488 211.775 152.153 212.111 150.975 212.111H139.914V241.742C139.914 242.92 139.578 243.256 138.4 243.256H132.281C131.103 243.256 130.768 242.92 130.768 241.742V212.111H119.707C118.529 212.111 118.193 211.775 118.193 210.597V205.492C118.193 204.314 118.529 203.979 119.707 203.979H150.966H150.975Z" fill="#F6E8D7"/>
<path d="M157.536 227.107V205.501C157.536 204.322 157.871 203.987 159.049 203.987H165.169C166.347 203.987 166.682 204.322 166.682 205.501V226.828C166.682 232.948 169.153 236.089 174.536 236.089C179.919 236.089 182.39 232.948 182.39 226.828V205.501C182.39 204.322 182.725 203.987 183.903 203.987H190.023C191.201 203.987 191.536 204.322 191.536 205.501V227.107C191.536 238.274 183.682 244 174.528 244C165.373 244 157.52 238.274 157.52 227.107H157.536Z" fill="#F6E8D7"/>
<path d="M219.556 226.714L229.038 241.309C229.88 242.716 228.923 243.272 227.745 243.272H222.076C220.898 243.272 220.227 242.822 219.49 241.759L210.287 227.556H207.145V241.759C207.145 242.937 206.81 243.272 205.632 243.272H199.513C198.334 243.272 197.999 242.937 197.999 241.759V205.501C197.999 204.322 198.334 203.987 199.513 203.987H213.486C219.883 203.987 227.794 206.679 227.794 215.776C227.794 222.059 224.031 225.315 219.548 226.722L219.556 226.714ZM213.216 219.981C217.143 219.981 218.942 218.688 218.942 215.776C218.942 212.863 217.143 211.563 213.216 211.563H207.154V219.981H213.216Z" fill="#F6E8D7"/>
<path d="M274 241.75C274.393 242.478 273.886 243.264 273.043 243.264H265.86C264.854 243.264 264.511 242.928 263.897 241.75L260.919 235.966H245.146L242.168 241.75C241.555 242.928 241.211 243.264 240.205 243.264H233.022C232.179 243.264 231.729 242.478 232.065 241.75L251.707 204.764C252.272 203.807 252.435 203.25 252.943 203.25H253.114C253.622 203.25 253.785 203.815 254.35 204.764L273.992 241.75H274ZM253.008 218.573L248.239 228.227H257.892L253.123 218.573H253.008Z" fill="#F6E8D7"/>
</g>
<defs>
<clipPath id="clip0_830_925">
<rect width="233.215" height="196" fill="white" transform="translate(40.9238 48)"/>
</clipPath>
</defs>
</svg>
