<svg width="110" height="110" viewBox="0 0 110 110" fill="none" xmlns="http://www.w3.org/2000/svg">
<path d="M98.0623 24.1736C76.4225 24.2113 54.7827 24.1962 33.1429 24.2038C32.5725 24.2038 32.2179 24.1812 32.0716 23.4449C30.7674 16.9871 24.9501 12.4465 18.8254 13.0545C11.8799 13.7431 7.00992 19.0903 7.00496 26.0733C7 45.6202 7.00496 65.1672 7 84.7142C7 85.6891 7.08183 86.6515 7.29756 87.6014C8.72335 93.8833 13.8413 97.9716 20.3107 97.9716C46.2155 97.9766 72.1228 97.9616 98.0276 97.9993C99.9642 98.0018 101.288 97.3484 102 95.5141C102 72.5774 102 49.6407 102 26.704C101.333 24.8269 100.001 24.1711 98.0623 24.1736ZM10.1665 26.121C10.169 20.9799 13.3528 17.1529 18.3146 16.2709C23.4078 15.3638 28.6522 19.4571 29.0886 24.6887C29.1382 25.2818 29.1606 25.8773 29.1606 26.4728C29.1655 42.826 29.163 59.1792 29.1581 75.5324C29.1581 75.8289 29.2523 76.1456 29.0688 76.432C23.6334 70.8109 15.3514 71.0898 10.164 76.5426C10.164 76.1883 10.164 75.9194 10.164 75.6531C10.164 59.1415 10.1591 42.63 10.1665 26.121ZM97.854 94.7904C84.8062 94.7628 71.7558 94.7703 58.708 94.7703C45.8758 94.7703 33.0437 94.7779 20.2115 94.7653C15.6738 94.7603 11.9742 92.0766 10.6376 87.8803C8.67376 81.7164 13.7124 75.2259 20.1099 75.6782C25.0939 76.03 28.7365 79.671 29.1333 84.6991C29.1531 84.9478 29.168 85.2016 29.2225 85.4454C29.4085 86.2972 29.9491 86.747 30.8046 86.7219C31.665 86.6968 32.1733 86.1992 32.2998 85.3449C32.3543 84.9755 32.3419 84.5961 32.3419 84.2191C32.3444 65.6396 32.3494 47.0601 32.3271 28.478C32.3271 27.6714 32.4585 27.385 33.3536 27.385C54.8447 27.4151 76.3332 27.4151 97.8243 27.3875C98.6847 27.3875 98.8633 27.6237 98.8608 28.4579C98.836 50.2337 98.836 72.0095 98.8633 93.7853C98.8633 94.6296 98.6475 94.7904 97.854 94.7904Z" fill="white" stroke="white"/>
<path d="M17.4895 45.8985C17.4895 49.7506 17.492 53.6053 17.487 57.4574C17.4846 58.7715 16.949 59.4475 15.9273 59.4525C14.9057 59.46 14.328 58.7615 14.3255 57.48C14.3205 49.7104 14.3205 41.9434 14.3255 34.1739C14.3255 32.9451 14.9752 32.1737 15.9497 32.1988C16.8969 32.224 17.4821 32.9527 17.4846 34.1513C17.492 38.0687 17.4895 41.9836 17.4895 45.8985Z" fill="white" stroke="white"/>
<path d="M17.4897 26.6446C17.4897 26.8331 17.4947 27.0216 17.4897 27.2075C17.46 28.3282 16.8574 28.9916 15.8879 28.974C14.9779 28.9589 14.3679 28.2855 14.3307 27.2351C14.3158 26.8281 14.3208 26.421 14.3307 26.0139C14.358 24.8882 14.9531 24.2098 15.9052 24.2022C16.8723 24.1947 17.4649 24.858 17.4922 25.9863C17.4947 26.2074 17.4897 26.426 17.4897 26.6446Z" fill="white" stroke="white"/>
<path d="M94.0677 35.9598C94.0677 33.3741 92.8824 32.1881 90.3111 32.1881C73.8314 32.1881 57.3492 32.1881 40.8695 32.1881C38.2758 32.1881 37.0781 33.4068 37.0781 36.0377C37.0781 51.6421 37.0781 67.244 37.0781 82.8484C37.0781 85.5773 38.2188 86.7382 40.9017 86.7382C49.1267 86.7407 57.3517 86.7382 65.5766 86.7382C73.8314 86.7382 82.0886 86.7382 90.3433 86.7382C92.9221 86.7382 94.0702 85.5747 94.0702 82.9589C94.0702 67.2917 94.0702 51.627 94.0677 35.9598ZM90.9161 82.773C90.9211 83.3911 90.75 83.5469 90.1499 83.5444C86.1601 83.5168 82.1729 83.5293 78.1831 83.5293C74.2554 83.5293 70.3301 83.5143 66.4024 83.5444C65.7626 83.5494 65.5766 83.3987 65.5841 82.7303C65.6188 78.9711 65.6163 75.2095 65.5841 71.4504C65.5791 70.8146 65.7725 70.6865 66.3602 70.689C70.102 70.7141 73.8438 70.7016 77.5831 70.7016C77.831 70.7016 78.079 70.7141 78.3245 70.6915C79.2097 70.6136 79.8296 69.9427 79.8222 69.0884C79.8172 68.234 79.1948 67.5581 78.2997 67.5103C77.5607 67.4701 76.8169 67.4978 76.073 67.4978C70.1987 67.4978 64.3219 67.4978 58.4477 67.4978C58.2319 67.4978 58.0137 67.4927 57.798 67.5003C56.764 67.538 56.1069 68.1561 56.0994 69.0884C56.092 70.0256 56.7491 70.679 57.7732 70.694C59.1023 70.7166 60.4339 70.7242 61.7605 70.689C62.2812 70.6764 62.4424 70.8297 62.4399 71.3675C62.4176 75.1894 62.4201 79.0113 62.4374 82.8358C62.4399 83.3509 62.3184 83.5394 61.7729 83.5369C54.815 83.5193 47.8596 83.5193 40.9017 83.5369C40.3835 83.5369 40.2174 83.4062 40.2198 82.8609C40.2421 79.039 40.2471 75.217 40.2174 71.3926C40.2124 70.7719 40.4306 70.684 40.9612 70.689C43.25 70.7141 45.5362 70.7041 47.8249 70.6991C49.0275 70.6965 49.7045 70.1261 49.7193 69.1311C49.7367 68.0958 49.0424 67.5028 47.7877 67.5003C45.499 67.4953 43.2103 67.4777 40.924 67.5128C40.3364 67.5229 40.2149 67.342 40.2174 66.7741C40.2397 61.9169 40.2397 57.0622 40.2174 52.205C40.2149 51.6446 40.3289 51.4159 40.924 51.4561C41.6927 51.5089 42.4689 51.4913 43.2425 51.4612C44.3187 51.421 45.0279 50.7325 44.9981 49.8027C44.9683 48.8956 44.2964 48.29 43.245 48.2599C42.5036 48.2398 41.7572 48.2096 41.0208 48.2674C40.3413 48.3227 40.2124 48.0488 40.2174 47.4156C40.2446 43.6866 40.2446 39.9576 40.2174 36.2312C40.2124 35.6055 40.3339 35.3718 41.0158 35.3743C48.9308 35.3994 56.8458 35.3969 64.7633 35.3768C65.3807 35.3743 65.6163 35.4949 65.6114 36.1885C65.5766 39.9476 65.5742 43.7092 65.6114 47.4684C65.6188 48.182 65.3485 48.2699 64.7509 48.2674C61.0414 48.2448 57.3294 48.2549 53.6198 48.2574C53.3099 48.2574 52.9974 48.2473 52.6949 48.29C51.8791 48.4031 51.4204 48.9157 51.3534 49.7223C51.2889 50.5365 51.6807 51.1169 52.4618 51.3481C52.809 51.4511 53.1933 51.4612 53.5603 51.4612C59.9925 51.4662 66.4222 51.4662 72.8544 51.4637C73.1321 51.4637 73.4148 51.4737 73.6875 51.426C74.5381 51.2802 75.0985 50.6144 75.0786 49.8078C75.0588 48.9509 74.4463 48.3001 73.5264 48.2724C72.1973 48.2297 70.8682 48.2297 69.5391 48.2649C68.9638 48.28 68.7382 48.1619 68.7456 47.5035C68.7803 43.7117 68.7803 39.9225 68.7456 36.1307C68.7407 35.4673 68.9787 35.3768 69.5441 35.3793C76.4077 35.3969 83.2738 35.3969 90.1375 35.3768C90.7425 35.3743 90.9186 35.5301 90.9136 36.1558C90.8839 39.9476 90.8863 43.7369 90.9111 47.5287C90.9161 48.1066 90.7599 48.2724 90.1846 48.2649C87.8339 48.2322 85.4857 48.2373 83.135 48.2599C82.0861 48.2699 81.4265 48.9057 81.4141 49.8228C81.4042 50.73 82.0737 51.3858 83.0978 51.4587C83.3135 51.4737 83.5317 51.4637 83.7474 51.4637C85.8799 51.4637 88.0149 51.4863 90.1474 51.4486C90.75 51.4386 90.9161 51.6019 90.9136 52.22C90.8888 57.0772 90.8888 61.932 90.9136 66.7892C90.9161 67.3797 90.7599 67.5405 90.1945 67.5028C89.3936 67.4525 88.5877 67.4676 87.7843 67.4978C86.8172 67.5329 86.1924 68.1762 86.1899 69.0858C86.1874 69.998 86.8073 70.6463 87.7719 70.684C88.5753 70.7141 89.3812 70.7267 90.1821 70.6815C90.7326 70.6488 90.9211 70.782 90.9161 71.3901C90.8863 75.1894 90.8863 78.9812 90.9161 82.773Z" fill="white" stroke="white"/>
</svg>
