<svg width="110" height="110" viewBox="0 0 110 110" fill="none" xmlns="http://www.w3.org/2000/svg">
<path d="M101.737 27.5688C100.522 26.478 99.1643 25.6413 97.5152 25.3449C94.5727 24.8195 92.0597 25.6264 89.949 27.7307C87.6137 30.0592 85.3056 32.415 82.9752 34.7485C82.7333 34.9926 82.5531 35.3387 82.0446 35.4209C82.0619 32.2831 82.015 29.1801 82.0767 26.0771C82.0841 25.6637 82.3186 25.4122 82.716 25.3051C83.0641 25.2105 83.422 25.1432 83.7652 25.0361C88.7863 23.4523 91.5684 18.8476 90.9784 14.0612C90.2971 8.52014 85.7203 4.82695 80.4943 5.00625C78.7885 5.06353 77.0802 5.01621 75.372 5.01621C54.8827 5.01621 34.3933 5.03365 13.904 5.00376C8.64098 4.99629 3.98768 9.62087 4.00002 14.7834C4.0568 41.0516 4.02718 67.3198 4.02718 93.588C4.02718 94.751 4.09136 94.8382 5.23432 94.8556C7.17217 94.883 9.11001 94.8556 11.0454 94.868C12.1859 94.8755 12.2846 94.9726 12.292 96.1157C12.3044 98.3346 12.2945 100.554 12.297 102.775C12.2994 104.964 12.334 105.001 14.4866 105.001C36.2892 105.001 58.0918 105.001 79.8944 105.001C82.0051 105.001 82.0495 104.959 82.0495 102.842C82.0495 89.6259 82.0594 76.4096 82.0322 63.1908C82.0298 62.0801 82.3482 61.2608 83.1357 60.4738C89.4281 54.1732 95.686 47.8378 101.956 41.5148C103.561 39.8985 104.953 38.1727 105.002 35.7272C105.002 34.9975 105.002 34.2704 105.002 33.5407C104.928 30.9856 103.514 29.1651 101.737 27.5688ZM21.0975 8.19888C21.5418 8.19888 21.8603 8.19888 22.1763 8.19888C41.5078 8.19888 60.8369 8.20884 80.1684 8.18892C83.2937 8.18643 85.7104 9.33448 87.1644 12.2108C89.2948 16.422 86.3078 21.8086 81.6422 22.1922C81.2176 22.227 80.7905 22.2395 80.3635 22.2395C60.9011 22.242 41.4387 22.242 21.9788 22.242C21.7245 22.242 21.4703 22.242 21.0901 22.242C24.8177 17.4929 24.7806 12.8957 21.0975 8.19888ZM12.7068 22.3889C12.2698 22.8745 12.5685 23.7785 12.5685 24.4982C12.5611 46.493 12.5562 68.4903 12.5883 90.485C12.5907 91.4687 12.3291 91.7178 11.3984 91.653C10.1888 91.5658 8.9693 91.6057 7.75475 91.6431C7.20426 91.6605 7.02652 91.5061 7.03886 90.9358C7.07342 89.1477 7.0512 87.3596 7.0512 85.5691C7.0512 74.6364 7.0512 63.7063 7.0512 52.7737C7.0512 40.4514 7.06602 28.1292 7.04133 15.8044C7.03392 12.7512 8.19663 10.4253 10.8973 8.96591C13.314 7.66097 16.3479 8.07187 18.5968 9.97948C20.6285 11.7053 21.4554 14.7336 20.6161 17.3783C19.7842 20.0031 17.3354 21.9805 14.689 22.2071C14.0102 22.2644 13.1091 21.9357 12.7068 22.3889ZM78.8823 100.805C78.8848 101.637 78.6725 101.834 77.8578 101.834C57.4031 101.809 36.9459 101.809 16.4911 101.831C15.7012 101.831 15.4444 101.674 15.4444 100.817C15.4691 75.909 15.4691 50.998 15.4469 26.0896C15.4469 25.335 15.637 25.1756 16.3627 25.1756C36.8841 25.198 57.4056 25.198 77.927 25.1731C78.707 25.1731 78.8897 25.3823 78.8823 26.1468C78.8428 30.2534 78.8527 34.3625 78.8749 38.4691C78.8774 39.0444 78.7144 39.4578 78.3071 39.8587C76.5939 41.5496 74.8881 43.2506 73.2243 44.9888C72.7479 45.4869 72.264 45.6513 71.5926 45.6513C55.5047 45.6338 39.4145 45.6488 23.3266 45.6114C22.3491 45.6089 22.1392 45.8729 22.1812 46.8043C22.2602 48.5724 22.2034 48.5749 23.9364 48.5749C38.7455 48.5749 53.5521 48.5749 68.3612 48.5749C68.7117 48.5749 69.0622 48.5749 69.6498 48.5749C67.6403 50.6021 65.8136 52.4076 64.0337 54.2629C63.5993 54.7161 63.1278 54.7062 62.6019 54.7062C49.5332 54.7037 36.4645 54.7186 23.3982 54.6788C22.3886 54.6763 22.1294 54.9303 22.1812 55.924C22.2676 57.6249 22.2059 57.6274 23.8796 57.6274C35.7338 57.6274 47.5855 57.6274 59.4397 57.6274C59.7581 57.6274 60.0766 57.6274 60.3975 57.6274C60.4641 58.0283 60.1679 58.1354 60.0025 58.3047C58.4547 59.8811 56.8748 61.4276 55.3517 63.0264C54.8358 63.5693 54.3173 63.791 53.562 63.7885C43.4827 63.7636 33.401 63.7835 23.3217 63.7511C22.4577 63.7486 22.1417 63.918 22.1837 64.8618C22.2651 66.7246 22.2059 66.7271 24.0129 66.7271C33.1393 66.7271 42.2681 66.7271 51.4316 66.7271C50.6441 68.4554 50.2713 70.2808 49.7579 72.0564C49.5604 72.7363 49.2666 72.8957 48.6026 72.8932C40.1303 72.8683 31.6606 72.8907 23.1884 72.8558C22.354 72.8534 22.1615 73.0725 22.1861 73.8868C22.2479 75.8219 22.2034 75.8219 24.1684 75.8219C31.984 75.8219 39.7971 75.8368 47.6127 75.8019C48.5112 75.7969 48.6346 75.9962 48.3409 76.828C47.8595 78.1952 47.4497 79.5947 47.1189 81.0068C46.9412 81.7588 46.6326 81.9805 45.8698 81.9755C38.3184 81.9456 30.767 81.9705 23.2131 81.9382C22.4083 81.9357 22.1565 82.105 22.1861 82.9517C22.2528 84.8668 22.2034 84.8693 24.0672 84.8693C40.2217 84.8693 56.3761 84.8618 72.5306 84.8917C73.4415 84.8942 73.6859 84.6526 73.6489 83.7486C73.5773 81.9581 73.6291 81.9556 71.8098 81.9556C66.8306 81.9556 61.8515 81.9556 56.702 81.9556C57.5784 81.4376 58.4127 81.2334 59.2126 81.084C62.2983 80.5137 64.8533 79.0942 66.7566 76.5515C67.2182 75.9364 67.8057 75.7795 68.5488 75.8044C69.9929 75.8542 71.437 75.8019 72.8812 75.8293C73.3996 75.8393 73.6267 75.7372 73.644 75.132C73.7032 72.8783 73.7279 72.8783 71.5012 72.8758C71.2149 72.8758 70.9285 72.8758 70.7508 72.8758C73.4391 70.1638 76.1496 67.4294 78.8576 64.6999C78.9613 64.8419 78.8626 65.1457 78.8626 65.4246C78.8626 77.2214 78.8527 89.0132 78.8823 100.805ZM59.8939 77.7942C56.7341 78.743 53.5669 79.6943 50.2318 80.6955C51.2045 77.3758 52.1425 74.1807 53.0954 70.9333C55.3838 73.2443 57.603 75.4832 59.8939 77.7942ZM96.8068 42.0925C86.1745 52.8135 75.5448 63.537 64.915 74.2604C64.404 74.7759 63.8683 75.269 63.3919 75.8119C62.9944 76.2651 62.7377 76.3623 62.2489 75.8567C59.8667 73.3913 57.4451 70.9607 55.011 68.5475C54.5914 68.1316 54.5568 67.9274 54.9962 67.4842C66.2209 56.1904 77.4308 44.8792 88.6308 33.5606C89.0307 33.1572 89.2455 33.0526 89.7022 33.5233C92.1115 36.0086 94.5628 38.4517 96.9993 40.9121C97.1524 41.0665 97.2931 41.2334 97.5473 41.5173C97.2733 41.7265 97.0141 41.8834 96.8068 42.0925ZM99.8456 39.0344C99.5765 39.2909 99.4407 39.2212 99.2235 39.0045C96.6759 36.427 94.1259 33.8495 91.5659 31.2869C91.2623 30.9831 91.3857 30.8237 91.6104 30.5622C93.9778 27.788 97.2585 27.6485 99.853 30.226C101.514 31.8771 102.057 32.9455 102.067 34.8307C102.122 36.4668 101.122 37.8141 99.8456 39.0344Z" fill="white" stroke="white"/>
</svg>
